<svg xmlns="http://www.w3.org/2000/svg" version="1.1" xmlns:xlink="http://www.w3.org/1999/xlink" xmlns:svgjs="http://svgjs.dev/svgjs" width="2000" height="545" viewBox="0 0 2000 545"><g transform="matrix(1,0,0,1,-1.2121212121212466,0.12501288769976782)"><svg viewBox="0 0 396 108" data-background-color="#349793" preserveAspectRatio="xMidYMid meet" height="545" width="2000" xmlns="http://www.w3.org/2000/svg" xmlns:xlink="http://www.w3.org/1999/xlink"><defs></defs><g id="tight-bounds" transform="matrix(1,0,0,1,0.2400000000000091,-0.024773196094628247)"><svg viewBox="0 0 395.52 108.04928139943655" height="108.04928139943655" width="395.52"><g><svg viewBox="0 0 587.7806946961047 160.57160619532695" height="108.04928139943655" width="395.52"><g transform="matrix(1,0,0,1,192.2606946961047,46.727660274189525)"><svg viewBox="0 0 395.52 67.1162856469479" height="67.1162856469479" width="395.52"><g><svg viewBox="0 0 395.52 67.1162856469479" height="67.1162856469479" width="395.52"><g><svg viewBox="0 0 395.52 67.1162856469479" height="67.1162856469479" width="395.52"><g transform="matrix(1,0,0,1,0,0)"><svg width="395.52" viewBox="1 -35.5 212.78 36" height="67.1162856469479" data-palette-color="#242731"><g class="undefined-text-0" data-fill-palette-color="primary" id="text-0"><path d="M10.5 0.5L10.5 0.5Q7.65 0.5 5.8-0.28 3.95-1.05 2.9-2.9 1.85-4.75 1.43-8.05 1-11.35 1-16.35L1-16.35Q1-22.4 1.75-26.18 2.5-29.95 3.9-31.98 5.3-34 7.35-34.75 9.4-35.5 12-35.5L12-35.5Q14.7-35.5 16.07-34.63 17.45-33.75 17.45-32.6L17.45-32.6Q17.45-31.65 17.23-30.7 17-29.75 16.75-29L16.75-29Q16.2-29.45 15.2-29.73 14.2-30 13.2-30L13.2-30Q11.3-30 10.1-29.28 8.9-28.55 8.22-27 7.55-25.45 7.3-22.93 7.05-20.4 7.05-16.8L7.05-16.8Q7.05-13 7.23-10.65 7.4-8.3 7.8-7.08 8.2-5.85 8.9-5.43 9.6-5 10.6-5L10.6-5Q11.1-5 11.43-5.08 11.75-5.15 11.93-5.25 12.1-5.35 12.2-5.45L12.2-5.45 12.2-16.65 9.9-16.65 9.9-20.25Q9.9-21.25 11.1-21.25L11.1-21.25 17.45-21.25 17.4-1.05Q16.6-0.55 15.53-0.2 14.45 0.15 13.2 0.33 11.95 0.5 10.5 0.5ZM31.6 0L19.95 0 19.95-33.6Q19.95-34.3 20.2-34.6 20.45-34.9 21.62-34.95 22.8-35 25.55-35L25.55-35 25.55-5.25 32.6-5.25 32.6-1Q32.6-0.4 32.32-0.2 32.05 0 31.6 0L31.6 0ZM43.34 0.5L43.34 0.5Q40.89 0.5 39.17-0.28 37.45-1.05 36.39-3.05 35.34-5.05 34.84-8.6 34.34-12.15 34.34-17.7L34.34-17.7Q34.34-24.5 35.39-28.38 36.45-32.25 38.57-33.88 40.7-35.5 43.89-35.5L43.89-35.5Q46.34-35.5 48.05-34.68 49.75-33.85 50.8-31.88 51.84-29.9 52.32-26.5 52.8-23.1 52.8-17.9L52.8-17.9Q52.8-10.85 51.8-6.85 50.8-2.85 48.72-1.18 46.64 0.5 43.34 0.5ZM43.64-5.3L43.64-5.3Q44.89-5.3 45.52-6.55 46.14-7.8 46.39-10.55 46.64-13.3 46.64-17.7L46.64-17.7Q46.64-22.05 46.47-24.7 46.3-27.35 45.7-28.53 45.09-29.7 43.8-29.7L43.8-29.7Q42.59-29.7 41.95-28.43 41.3-27.15 41.02-24.25 40.74-21.35 40.74-16.45L40.74-16.45Q40.74-12.55 40.95-10.1 41.14-7.65 41.77-6.48 42.39-5.3 43.64-5.3ZM61.84 0L55.29 0 55.29-34Q55.29-34.5 55.59-34.75 55.89-35 56.69-35L56.69-35 61.59-35Q63.19-35 64.69-34.68 66.19-34.35 67.39-33.5 68.59-32.65 69.32-31.13 70.04-29.6 70.04-27.15L70.04-27.15Q70.04-24.6 69.34-22.88 68.64-21.15 67.59-20.23 66.54-19.3 65.44-19.15L65.44-19.15Q66.34-19.05 67.34-18.73 68.34-18.4 69.22-17.63 70.09-16.85 70.64-15.48 71.19-14.1 71.19-11.9L71.19-11.9Q71.19-9.9 70.87-8.13 70.54-6.35 69.84-4.88 69.14-3.4 68.04-2.3 66.94-1.2 65.42-0.6 63.89 0 61.84 0L61.84 0ZM60.99-16.5L60.99-4.85 61.99-4.85Q62.59-4.85 63.04-5.3 63.49-5.75 63.82-6.6 64.14-7.45 64.32-8.65 64.49-9.85 64.49-11.4L64.49-11.4Q64.49-13.1 64.34-14.1 64.19-15.1 63.89-15.63 63.59-16.15 63.14-16.32 62.69-16.5 62.09-16.5L62.09-16.5 60.99-16.5ZM60.99-30.1L60.99-21.2 61.94-21.2Q62.54-21.2 62.97-21.8 63.39-22.4 63.62-23.48 63.84-24.55 63.84-25.95L63.84-25.95Q63.84-27.7 63.62-28.6 63.39-29.5 62.99-29.8 62.59-30.1 62.14-30.1L62.14-30.1 60.99-30.1ZM75.34 0.1L75.34 0.1Q74.79 0.1 73.79 0.05 72.79 0 71.79-0.1L71.79-0.1 80.14-34.05Q80.34-35.1 82.39-35.1L82.39-35.1Q83.09-35.1 83.82-35.05 84.54-35 85.04-34.9L85.04-34.9 93.39-0.9Q93.49-0.4 93.04-0.15 92.59 0.1 90.89 0.1L90.89 0.1Q90.34 0.1 89.54 0.08 88.74 0.05 87.64 0L87.64 0 83.99-17.65Q83.74-19 83.49-20.58 83.24-22.15 83.04-23.85 82.84-25.55 82.69-27.1L82.69-27.1Q82.54-25.55 82.32-23.85 82.09-22.15 81.87-20.58 81.64-19 81.34-17.65L81.34-17.65 77.89-0.95Q77.79-0.45 77.42-0.18 77.04 0.1 75.34 0.1ZM88.79-7.95L77.49-7.95 77.49-13 88.79-13 88.79-7.95ZM106.69 0L95.04 0 95.04-33.6Q95.04-34.3 95.29-34.6 95.54-34.9 96.71-34.95 97.89-35 100.64-35L100.64-35 100.64-5.25 107.69-5.25 107.69-1Q107.69-0.4 107.41-0.2 107.14 0 106.69 0L106.69 0Z" fill="#000000" data-fill-palette-color="primary"></path><path d="M115.04 0.5L115.04 0.5Q111.69 0.5 110.09-0.53 108.49-1.55 108.49-2.85L108.49-2.85Q108.49-3.7 108.79-4.83 109.09-5.95 109.74-6.9L109.74-6.9Q110.54-6.2 111.79-5.73 113.04-5.25 114.39-5.25L114.39-5.25Q116.44-5.25 117.24-6.3 118.04-7.35 118.04-9.1L118.04-9.1Q118.04-10.4 117.57-11.55 117.09-12.7 115.79-14.4L115.79-14.4 111.24-20.5Q109.54-22.8 108.99-24.5 108.44-26.2 108.44-27.85L108.44-27.85Q108.44-31.25 110.69-33.38 112.94-35.5 117.34-35.5L117.34-35.5Q121.14-35.5 122.64-34.75 124.14-34 124.14-32.7L124.14-32.7Q124.14-32 123.84-31.18 123.54-30.35 122.84-29.55L122.84-29.55Q122.44-29.85 121.19-30.2 119.94-30.55 118.49-30.55L118.49-30.55Q116.64-30.55 115.59-29.93 114.54-29.3 114.54-28L114.54-28Q114.54-26.85 114.97-25.88 115.39-24.9 116.34-23.55L116.34-23.55 121.14-17.4Q122.94-15.1 123.54-13.25 124.14-11.4 124.14-9.25L124.14-9.25Q124.14-6.75 123.37-4.53 122.59-2.3 120.64-0.9 118.69 0.5 115.04 0.5ZM138.04 0L126.39 0 126.39-34Q126.39-34 126.54-34.5 126.69-35 127.39-35L127.39-35 139.39-35Q139.39-32.75 139.34-31.7 139.29-30.65 139.09-30.33 138.89-30 138.39-30L138.39-30 131.99-30 131.99-5 139.04-5Q139.04-2.65 138.99-1.6 138.94-0.55 138.74-0.28 138.54 0 138.04 0L138.04 0ZM137.09-16.4L126.79-16.4 126.79-21.5 138.04-21.5Q138.04-18.35 137.91-17.38 137.79-16.4 137.09-16.4L137.09-16.4ZM143.53 0.1L143.53 0.1Q142.99 0.1 141.99 0.05 140.99 0 139.99-0.1L139.99-0.1 148.34-34.05Q148.53-35.1 150.59-35.1L150.59-35.1Q151.28-35.1 152.01-35.05 152.74-35 153.24-34.9L153.24-34.9 161.59-0.9Q161.69-0.4 161.24-0.15 160.78 0.1 159.09 0.1L159.09 0.1Q158.53 0.1 157.74 0.08 156.94 0.05 155.84 0L155.84 0 152.19-17.65Q151.94-19 151.69-20.58 151.44-22.15 151.24-23.85 151.03-25.55 150.89-27.1L150.89-27.1Q150.74-25.55 150.51-23.85 150.28-22.15 150.06-20.58 149.84-19 149.53-17.65L149.53-17.65 146.09-0.95Q145.99-0.45 145.61-0.18 145.24 0.1 143.53 0.1ZM156.99-7.95L145.69-7.95 145.69-13 156.99-13 156.99-7.95ZM169.18-13.5L164.88-13.5Q164.03-13.5 163.88-13.8 163.73-14.1 163.73-14.9L163.73-14.9 163.73-34Q163.73-34 163.78-34.5 163.83-35 164.63-35L164.63-35 168.93-35Q172.08-35 174.26-34.13 176.43-33.25 177.56-31.03 178.68-28.8 178.68-24.7L178.68-24.7Q178.68-21.3 177.86-19.13 177.03-16.95 175.66-15.73 174.28-14.5 172.61-14 170.93-13.5 169.18-13.5L169.18-13.5ZM163.23 0L163.23 0 163.23-34Q163.23-34 163.36-34.5 163.48-35 164.23-35L164.23-35 167.83-35Q168.58-35 168.71-34.5 168.83-34 168.83-34L168.83-34 168.83-1Q168.83-0.5 168.58-0.3 168.33-0.1 167.16-0.05 165.98 0 163.23 0ZM176.58 0.15L176.58 0.15Q175.93 0.15 175.08 0.1 174.23 0.05 173.28 0L173.28 0Q173.18-4.4 172.53-7.28 171.88-10.15 171.06-11.78 170.23-13.4 169.61-14.08 168.98-14.75 168.98-14.75L168.98-14.75Q168.98-14.75 168.83-15.1 168.68-15.45 169.33-15.8L169.33-15.8 172.48-17.6Q173.28-17.6 173.53-17.05L173.53-17.05Q173.53-17.05 174.38-16.23 175.23-15.4 176.36-13.53 177.48-11.65 178.41-8.6 179.33-5.55 179.48-1.1L179.48-1.1Q179.48-0.4 179.06-0.13 178.63 0.15 176.58 0.15ZM168.83-30.15L168.83-18.65 169.83-18.65Q170.63-18.65 171.18-19.15 171.73-19.65 172.06-21.03 172.38-22.4 172.38-25L172.38-25Q172.38-26.8 172.16-27.95 171.93-29.1 171.46-29.63 170.98-30.15 170.18-30.15L170.18-30.15 168.83-30.15ZM189.33 0.5L189.33 0.5Q187.63 0.5 186.28 0.08 184.93-0.35 183.93-1.4 182.93-2.45 182.28-4.35 181.63-6.25 181.31-9.2 180.98-12.15 180.98-16.35L180.98-16.35Q180.98-21.25 181.58-24.65 182.18-28.05 183.21-30.18 184.23-32.3 185.53-33.48 186.83-34.65 188.23-35.08 189.63-35.5 190.98-35.5L190.98-35.5Q193.13-35.5 194.13-35.08 195.13-34.65 195.43-33.98 195.73-33.3 195.73-32.55L195.73-32.55Q195.73-31.55 195.48-30.68 195.23-29.8 194.93-29.15L194.93-29.15Q194.63-29.4 194.23-29.58 193.83-29.75 193.36-29.88 192.88-30 192.33-30L192.33-30Q191.48-30 190.68-29.68 189.88-29.35 189.18-28.5 188.48-27.65 187.98-26.15 187.48-24.65 187.18-22.35 186.88-20.05 186.88-16.8L186.88-16.8Q186.88-13.55 187.11-11.4 187.33-9.25 187.78-8.03 188.23-6.8 188.98-6.28 189.73-5.75 190.78-5.75L190.78-5.75Q191.93-5.75 192.96-5.95 193.98-6.15 194.68-6.5L194.68-6.5Q194.98-5.85 195.21-4.98 195.43-4.1 195.43-3.2L195.43-3.2Q195.43-2.05 194.71-1.2 193.98-0.35 192.61 0.08 191.23 0.5 189.33 0.5ZM208.18 0L208.18 0 208.18-34Q208.18-34.5 208.4-34.7 208.63-34.9 209.78-34.95 210.93-35 213.78-35L213.78-35 213.78-1Q213.78-0.5 213.58-0.3 213.38-0.1 212.2-0.05 211.03 0 208.18 0ZM197.78 0L197.78 0 197.78-34Q197.78-34.5 197.98-34.7 198.18-34.9 199.35-34.95 200.53-35 203.38-35L203.38-35 203.38-1Q203.38-0.5 203.18-0.3 202.98-0.1 201.8-0.05 200.63 0 197.78 0ZM210.73-16L200.43-16 200.43-21.25 210.68-21.25 210.73-16Z" fill="#000000" data-fill-palette-color="secondary"></path></g></svg></g></svg></g></svg></g></svg></g><g><svg viewBox="0 0 160.57160619532695 160.57160619532695" height="160.57160619532695" width="160.57160619532695"><g><svg></svg></g><g id="icon-0"><svg viewBox="0 0 160.57160619532695 160.57160619532695" height="160.57160619532695" width="160.57160619532695"><g><path d="M0 80.286c0-44.341 35.945-80.286 80.286-80.286 44.341 0 80.286 35.945 80.286 80.286 0 44.341-35.945 80.286-80.286 80.286-44.341 0-80.286-35.945-80.286-80.286zM80.286 154.519c40.998 0 74.233-33.235 74.233-74.233 0-40.998-33.235-74.233-74.233-74.233-40.998 0-74.233 33.235-74.233 74.233 0 40.998 33.235 74.233 74.233 74.233z" data-fill-palette-color="accent" fill="#000000" stroke="transparent"></path></g><g transform="matrix(1,0,0,1,36.43696665321766,36.43696665321766)"><svg viewBox="0 0 87.69767288889163 87.69767288889163" height="87.69767288889163" width="87.69767288889163"><g><svg xmlns="http://www.w3.org/2000/svg" xmlns:xlink="http://www.w3.org/1999/xlink" version="1.1" x="0" y="0" viewBox="0.5 0.5 47 47" style="enable-background:new 0 0 48 48;" xml:space="preserve" height="87.69767288889163" width="87.69767288889163" class="icon-fi-0" data-fill-palette-color="accent" id="fi-0"><g fill="#242731" data-fill-palette-color="accent"><path class="" d="M33.6 26.5h-7.2v20.7C29.9 44.7 33.1 37 33.6 26.5z" fill="#000000" data-fill-palette-color="accent"></path><path class="" d="M26.4 0.8v20.7h7.2C33.1 11 29.9 3.3 26.4 0.8z" fill="#000000" data-fill-palette-color="accent"></path><path class="" d="M38.3 26.5c-0.4 8.7-2.5 16.2-5.8 21 2.6-1.1 5.1-2.7 7.2-4.7 4.4-4.2 7.1-10 7.7-16.3H38.3z" fill="#000000" data-fill-palette-color="accent"></path><path class="" d="M47.5 21.5c-0.9-9.6-6.8-17.6-14.9-21 3.2 4.8 5.4 12.3 5.7 21H47.5z" fill="#000000" data-fill-palette-color="accent"></path><path class="" d="M21.6 47.2V26.5h-7.2C14.9 37 18.1 44.7 21.6 47.2z" fill="#000000" data-fill-palette-color="accent"></path><path class="" d="M14.4 21.5h7.2V0.8C18.1 3.3 14.9 11 14.4 21.5z" fill="#000000" data-fill-palette-color="accent"></path><path class="" d="M15.4 47.5c-3.2-4.8-5.4-12.3-5.7-21H0.5C1.4 36.1 7.3 44.1 15.4 47.5z" fill="#000000" data-fill-palette-color="accent"></path><path class="" d="M15.4 0.5c-8.1 3.4-14 11.4-14.9 21h9.2C10.1 12.8 12.2 5.3 15.4 0.5z" fill="#000000" data-fill-palette-color="accent"></path></g></svg><g></g></g></svg></g></svg></g></svg></g></svg></g></svg><rect width="395.52" height="108.04928139943655" fill="none" stroke="none" visibility="hidden"></rect></g></svg></g></svg>