<svg xmlns="http://www.w3.org/2000/svg" version="1.1" xmlns:xlink="http://www.w3.org/1999/xlink" xmlns:svgjs="http://svgjs.dev/svgjs" width="1000" height="1000" viewBox="0 0 1000 1000"><rect width="1000" height="1000" fill="#ffffff"></rect><g transform="matrix(0.7,0,0,0.7,149.57575757575756,355.782859683182)"><svg viewBox="0 0 396 163" data-background-color="#349793" preserveAspectRatio="xMidYMid meet" height="411" width="1000" xmlns="http://www.w3.org/2000/svg" xmlns:xlink="http://www.w3.org/1999/xlink"><defs></defs><g id="tight-bounds" transform="matrix(1,0,0,1,0.2400000000000091,0.2080078958684055)"><svg viewBox="0 0 395.52 162.5839842082632" height="162.5839842082632" width="395.52"><g><svg viewBox="0 0 488.9751003897437 201" height="162.5839842082632" width="395.52"><g><rect width="8.324402953846157" height="201" x="188.7308615384616" y="0" fill="#000000" opacity="1" stroke-width="0" stroke="transparent" fill-opacity="1" class="rect-o-0" data-fill-palette-color="primary" rx="1%" id="o-0" data-palette-color="#242731"></rect></g><g transform="matrix(1,0,0,1,218.84689526153852,0.4999999999999858)"><svg viewBox="0 0 270.1282051282052 200.00000000000003" height="200.00000000000003" width="270.1282051282052"><g><svg viewBox="0 0 270.1282051282052 200.00000000000003" height="200.00000000000003" width="270.1282051282052"><g><svg viewBox="0 0 270.1282051282052 200.00000000000003" height="200.00000000000003" width="270.1282051282052"><g transform="matrix(1,0,0,1,0,0)"><svg width="270.1282051282052" viewBox="0.7500001788139343 -35.5 105.55000305175781 75.00000762939453" height="200.00000000000003" data-palette-color="#242731"><svg></svg><svg></svg><g class="undefined-text-0" data-fill-palette-color="primary" id="text-0"><path d="M10.5 0.5v0c-1.9 0-3.467-0.26-4.7-0.78-1.233-0.513-2.2-1.387-2.9-2.62-0.7-1.233-1.19-2.95-1.47-5.15-0.287-2.2-0.43-4.967-0.43-8.3v0c0-4.033 0.25-7.31 0.75-9.83 0.5-2.513 1.217-4.447 2.15-5.8 0.933-1.347 2.083-2.27 3.45-2.77 1.367-0.5 2.917-0.75 4.65-0.75v0c1.8 0 3.157 0.29 4.07 0.87 0.92 0.587 1.38 1.263 1.38 2.03v0c0 0.633-0.073 1.267-0.22 1.9-0.153 0.633-0.313 1.2-0.48 1.7v0c-0.367-0.3-0.883-0.543-1.55-0.73-0.667-0.18-1.333-0.27-2-0.27v0c-1.267 0-2.3 0.24-3.1 0.72-0.8 0.487-1.427 1.247-1.88 2.28-0.447 1.033-0.753 2.39-0.92 4.07-0.167 1.687-0.25 3.73-0.25 6.13v0c0 2.533 0.06 4.583 0.18 6.15 0.113 1.567 0.303 2.757 0.57 3.57 0.267 0.82 0.633 1.37 1.1 1.65 0.467 0.287 1.033 0.43 1.7 0.43v0c0.333 0 0.61-0.027 0.83-0.08 0.213-0.047 0.38-0.103 0.5-0.17 0.113-0.067 0.203-0.133 0.27-0.2v0-11.2h-2.3v-3.6c0-0.667 0.4-1 1.2-1v0h6.35l-0.05 20.2c-0.533 0.333-1.157 0.617-1.87 0.85-0.72 0.233-1.497 0.41-2.33 0.53-0.833 0.113-1.733 0.17-2.7 0.17zM31.6 0h-11.65v-33.6c0-0.467 0.083-0.8 0.25-1 0.167-0.2 0.643-0.317 1.43-0.35 0.78-0.033 2.087-0.05 3.92-0.05v0 29.75h7.05v4.25c0 0.4-0.09 0.667-0.27 0.8-0.187 0.133-0.43 0.2-0.73 0.2zM41.85 0.5v0c-1.633 0-3.023-0.26-4.17-0.78-1.153-0.513-2.08-1.437-2.78-2.77-0.7-1.333-1.217-3.183-1.55-5.55-0.333-2.367-0.5-5.4-0.5-9.1v0c0-4.533 0.35-8.093 1.05-10.68 0.7-2.58 1.76-4.413 3.18-5.5 1.413-1.08 3.187-1.62 5.32-1.62v0c1.633 0 3.017 0.273 4.15 0.82 1.133 0.553 2.05 1.487 2.75 2.8 0.7 1.32 1.21 3.113 1.53 5.38 0.313 2.267 0.47 5.133 0.47 8.6v0c0 4.7-0.333 8.383-1 11.05-0.667 2.667-1.69 4.557-3.07 5.67-1.387 1.12-3.18 1.68-5.38 1.68zM42.15-5.3v0c0.833 0 1.46-0.417 1.88-1.25 0.413-0.833 0.703-2.167 0.87-4 0.167-1.833 0.25-4.217 0.25-7.15v0c0-2.9-0.057-5.233-0.17-7-0.12-1.767-0.38-3.043-0.78-3.83-0.4-0.78-1.033-1.17-1.9-1.17v0c-0.8 0-1.417 0.423-1.85 1.27-0.433 0.853-0.74 2.247-0.92 4.18-0.187 1.933-0.28 4.533-0.28 7.8v0c0 2.6 0.067 4.717 0.2 6.35 0.133 1.633 0.41 2.84 0.83 3.62 0.413 0.787 1.037 1.18 1.87 1.18zM60.35 0h-6.55v-34c0-0.333 0.1-0.583 0.3-0.75 0.2-0.167 0.567-0.25 1.1-0.25v0h4.9c1.067 0 2.1 0.107 3.1 0.32 1 0.22 1.9 0.613 2.7 1.18 0.8 0.567 1.443 1.357 1.93 2.37 0.48 1.02 0.72 2.347 0.72 3.98v0c0 1.7-0.233 3.123-0.7 4.27-0.467 1.153-1.05 2.037-1.75 2.65-0.7 0.62-1.417 0.98-2.15 1.08v0c0.6 0.067 1.233 0.207 1.9 0.42 0.667 0.22 1.293 0.587 1.88 1.1 0.58 0.52 1.053 1.237 1.42 2.15 0.367 0.92 0.55 2.113 0.55 3.58v0c0 1.333-0.107 2.59-0.32 3.77-0.22 1.187-0.563 2.27-1.03 3.25-0.467 0.987-1.067 1.847-1.8 2.58-0.733 0.733-1.607 1.3-2.62 1.7-1.02 0.4-2.213 0.6-3.58 0.6zM59.5-16.5v11.65h1c0.4 0 0.75-0.15 1.05-0.45 0.3-0.3 0.56-0.733 0.78-1.3 0.213-0.567 0.38-1.25 0.5-2.05 0.113-0.8 0.17-1.717 0.17-2.75v0c0-1.133-0.05-2.033-0.15-2.7-0.1-0.667-0.25-1.177-0.45-1.53-0.2-0.347-0.45-0.577-0.75-0.69-0.3-0.12-0.65-0.18-1.05-0.18v0zM59.5-30.1v8.9h0.95c0.4 0 0.743-0.2 1.03-0.6 0.28-0.4 0.497-0.96 0.65-1.68 0.147-0.713 0.22-1.537 0.22-2.47v0c0-1.167-0.073-2.05-0.22-2.65-0.153-0.6-0.363-1-0.63-1.2-0.267-0.2-0.55-0.3-0.85-0.3v0zM73.95 0.1v0c-0.367 0-0.883-0.017-1.55-0.05-0.667-0.033-1.333-0.083-2-0.15v0l8.35-33.95c0.133-0.7 0.883-1.05 2.25-1.05v0c0.467 0 0.94 0.017 1.42 0.05 0.487 0.033 0.897 0.083 1.23 0.15v0l8.35 34c0.067 0.333-0.05 0.583-0.35 0.75-0.3 0.167-1.017 0.25-2.15 0.25v0c-0.367 0-0.817-0.007-1.35-0.02-0.533-0.02-1.167-0.047-1.9-0.08v0l-3.65-17.65c-0.167-0.9-0.333-1.877-0.5-2.93-0.167-1.047-0.317-2.137-0.45-3.27-0.133-1.133-0.25-2.217-0.35-3.25v0c-0.1 1.033-0.227 2.117-0.38 3.25-0.147 1.133-0.297 2.223-0.45 3.27-0.147 1.053-0.32 2.03-0.52 2.93v0l-3.45 16.7c-0.067 0.333-0.227 0.59-0.48 0.77-0.247 0.187-0.937 0.28-2.07 0.28zM87.4-7.95h-11.3v-5.05h11.3zM105.3 0h-11.65v-33.6c0-0.467 0.083-0.8 0.25-1 0.167-0.2 0.643-0.317 1.43-0.35 0.78-0.033 2.087-0.05 3.92-0.05v0 29.75h7.05v4.25c0 0.4-0.09 0.667-0.27 0.8-0.187 0.133-0.43 0.2-0.73 0.2z" data-fill-palette-color="primary" fill="#000000" opacity="1"></path><path d="M7.35 39.5v0c-2.233 0-3.883-0.343-4.95-1.03-1.067-0.68-1.6-1.453-1.6-2.32v0c0-0.567 0.1-1.227 0.3-1.98 0.2-0.747 0.517-1.437 0.95-2.07v0c0.533 0.467 1.217 0.857 2.05 1.17 0.833 0.32 1.7 0.48 2.6 0.48v0c1.367 0 2.317-0.35 2.85-1.05 0.533-0.7 0.8-1.633 0.8-2.8v0c0-0.867-0.157-1.683-0.47-2.45-0.32-0.767-0.913-1.717-1.78-2.85v0l-4.55-6.1c-1.133-1.533-1.883-2.867-2.25-4-0.367-1.133-0.55-2.25-0.55-3.35v0c0-2.267 0.75-4.11 2.25-5.53 1.5-1.413 3.717-2.12 6.65-2.12v0c2.533 0 4.3 0.25 5.3 0.75 1 0.5 1.5 1.183 1.5 2.05v0c0 0.467-0.1 0.973-0.3 1.52-0.2 0.553-0.533 1.097-1 1.63v0c-0.267-0.2-0.817-0.417-1.65-0.65-0.833-0.233-1.733-0.35-2.7-0.35v0c-1.233 0-2.2 0.207-2.9 0.62-0.7 0.42-1.05 1.063-1.05 1.93v0c0 0.767 0.143 1.473 0.43 2.12 0.28 0.653 0.737 1.43 1.37 2.33v0l4.8 6.15c1.2 1.533 2 2.917 2.4 4.15 0.4 1.233 0.6 2.567 0.6 4v0c0 1.667-0.257 3.24-0.77 4.72-0.52 1.487-1.43 2.697-2.73 3.63-1.3 0.933-3.167 1.4-5.6 1.4zM30.35 39h-11.65v-34c0 0 0.05-0.167 0.15-0.5 0.1-0.333 0.383-0.5 0.85-0.5v0h12c0 1.5-0.017 2.6-0.05 3.3-0.033 0.7-0.117 1.157-0.25 1.37-0.133 0.22-0.367 0.33-0.7 0.33v0h-6.4v25h7.05c0 1.567-0.017 2.7-0.05 3.4-0.033 0.7-0.117 1.14-0.25 1.32-0.133 0.187-0.367 0.28-0.7 0.28zM29.4 22.6h-10.3v-5.1h11.25c0 2.1-0.04 3.473-0.12 4.12-0.087 0.653-0.363 0.98-0.83 0.98zM35.85 39.1v0c-0.367 0-0.883-0.017-1.55-0.05-0.667-0.033-1.333-0.083-2-0.15v0l8.35-33.95c0.133-0.7 0.883-1.05 2.25-1.05v0c0.467 0 0.943 0.017 1.43 0.05 0.48 0.033 0.887 0.083 1.22 0.15v0l8.35 34c0.067 0.333-0.05 0.583-0.35 0.75-0.3 0.167-1.017 0.25-2.15 0.25v0c-0.367 0-0.817-0.007-1.35-0.02-0.533-0.02-1.167-0.047-1.9-0.08v0l-3.65-17.65c-0.167-0.9-0.333-1.877-0.5-2.93-0.167-1.047-0.317-2.137-0.45-3.27-0.133-1.133-0.25-2.217-0.35-3.25v0c-0.1 1.033-0.223 2.117-0.37 3.25-0.153 1.133-0.303 2.223-0.45 3.27-0.153 1.053-0.33 2.03-0.53 2.93v0l-3.45 16.7c-0.067 0.333-0.223 0.59-0.47 0.77-0.253 0.187-0.947 0.28-2.08 0.28zM49.3 31.05h-11.3v-5.05h11.3zM61.5 25.5h-4.3c-0.567 0-0.9-0.1-1-0.3-0.1-0.2-0.15-0.567-0.15-1.1v0-19.1c0 0 0.017-0.167 0.05-0.5 0.033-0.333 0.317-0.5 0.85-0.5v0h4.3c2.1 0 3.877 0.29 5.33 0.87 1.447 0.587 2.547 1.62 3.3 3.1 0.747 1.487 1.12 3.597 1.12 6.33v0c0 2.267-0.273 4.123-0.82 5.57-0.553 1.453-1.287 2.587-2.2 3.4-0.92 0.82-1.937 1.397-3.05 1.73-1.12 0.333-2.263 0.5-3.43 0.5zM55.55 39v0-34c0 0 0.043-0.167 0.13-0.5 0.08-0.333 0.37-0.5 0.87-0.5v0h3.6c0.5 0 0.793 0.167 0.88 0.5 0.08 0.333 0.12 0.5 0.12 0.5v0 33c0 0.333-0.083 0.567-0.25 0.7-0.167 0.133-0.64 0.217-1.42 0.25-0.787 0.033-2.097 0.05-3.93 0.05zM68.9 39.15v0c-0.433 0-0.933-0.017-1.5-0.05-0.567-0.033-1.167-0.067-1.8-0.1v0c-0.067-2.933-0.317-5.36-0.75-7.28-0.433-1.913-0.923-3.413-1.47-4.5-0.553-1.08-1.037-1.847-1.45-2.3-0.42-0.447-0.63-0.67-0.63-0.67v0c0 0-0.05-0.117-0.15-0.35-0.1-0.233 0.067-0.467 0.5-0.7v0l3.15-1.8c0.533 0 0.883 0.183 1.05 0.55v0c0 0 0.283 0.273 0.85 0.82 0.567 0.553 1.227 1.453 1.98 2.7 0.747 1.253 1.43 2.897 2.05 4.93 0.613 2.033 0.97 4.533 1.07 7.5v0c0 0.467-0.14 0.79-0.42 0.97-0.287 0.187-1.113 0.28-2.48 0.28zM61.15 8.85v11.5h1c0.533 0 0.983-0.167 1.35-0.5 0.367-0.333 0.66-0.96 0.88-1.88 0.213-0.913 0.32-2.237 0.32-3.97v0c0-1.2-0.073-2.183-0.22-2.95-0.153-0.767-0.387-1.327-0.7-1.68-0.32-0.347-0.747-0.52-1.28-0.52v0zM81.65 39.5v0c-1.133 0-2.15-0.14-3.05-0.42-0.9-0.287-1.683-0.78-2.35-1.48-0.667-0.7-1.217-1.683-1.65-2.95-0.433-1.267-0.757-2.883-0.97-4.85-0.22-1.967-0.33-4.35-0.33-7.15v0c0-3.267 0.2-6.033 0.6-8.3 0.4-2.267 0.943-4.11 1.63-5.53 0.68-1.413 1.453-2.513 2.32-3.3 0.867-0.78 1.767-1.313 2.7-1.6 0.933-0.28 1.85-0.42 2.75-0.42v0c1.433 0 2.483 0.14 3.15 0.42 0.667 0.287 1.1 0.653 1.3 1.1 0.2 0.453 0.3 0.93 0.3 1.43v0c0 0.667-0.083 1.29-0.25 1.87-0.167 0.587-0.35 1.097-0.55 1.53v0c-0.2-0.167-0.433-0.31-0.7-0.43-0.267-0.113-0.557-0.213-0.87-0.3-0.32-0.08-0.663-0.12-1.03-0.12v0c-0.567 0-1.117 0.107-1.65 0.32-0.533 0.22-1.033 0.613-1.5 1.18-0.467 0.567-0.867 1.35-1.2 2.35-0.333 1-0.6 2.267-0.8 3.8-0.2 1.533-0.3 3.383-0.3 5.55v0c0 2.167 0.077 3.967 0.23 5.4 0.147 1.433 0.37 2.557 0.67 3.37 0.3 0.82 0.7 1.403 1.2 1.75 0.5 0.353 1.1 0.53 1.8 0.53v0c0.767 0 1.493-0.067 2.18-0.2 0.68-0.133 1.253-0.317 1.72-0.55v0c0.2 0.433 0.377 0.94 0.53 1.52 0.147 0.587 0.22 1.18 0.22 1.78v0c0 0.767-0.24 1.433-0.72 2-0.487 0.567-1.187 0.993-2.1 1.28-0.92 0.28-2.013 0.42-3.28 0.42zM100.5 39v0-34c0-0.333 0.077-0.567 0.23-0.7 0.147-0.133 0.603-0.217 1.37-0.25 0.767-0.033 2.1-0.05 4-0.05v0 34c0 0.333-0.067 0.567-0.2 0.7-0.133 0.133-0.59 0.217-1.37 0.25-0.787 0.033-2.13 0.05-4.03 0.05zM90.1 39v0-34c0-0.333 0.067-0.567 0.2-0.7 0.133-0.133 0.593-0.217 1.38-0.25 0.78-0.033 2.12-0.05 4.02-0.05v0 34c0 0.333-0.067 0.567-0.2 0.7-0.133 0.133-0.59 0.217-1.37 0.25-0.787 0.033-2.13 0.05-4.03 0.05zM103.05 23h-10.3v-5.25h10.25z" data-fill-palette-color="primary" fill="#000000" opacity="1"></path></g></svg></g></svg></g></svg></g></svg></g><g transform="matrix(1,0,0,1,0,17.03038461538459)"><svg viewBox="0 0 166.93923076923082 166.93923076923082" height="166.93923076923082" width="166.93923076923082"><g><svg xmlns="http://www.w3.org/2000/svg" xmlns:xlink="http://www.w3.org/1999/xlink" version="1.1" x="0" y="0" viewBox="0.5 0.5 47 47" style="enable-background:new 0 0 48 48;" xml:space="preserve" height="166.93923076923082" width="166.93923076923082" class="icon-icon-0" data-fill-palette-color="accent" id="icon-0"><g fill="#242731" data-fill-palette-color="accent"><path class="" d="M33.6 26.5h-7.2v20.7C29.9 44.7 33.1 37 33.6 26.5z" fill="#000000" data-fill-palette-color="accent"></path><path class="" d="M26.4 0.8v20.7h7.2C33.1 11 29.9 3.3 26.4 0.8z" fill="#000000" data-fill-palette-color="accent"></path><path class="" d="M38.3 26.5c-0.4 8.7-2.5 16.2-5.8 21 2.6-1.1 5.1-2.7 7.2-4.7 4.4-4.2 7.1-10 7.7-16.3H38.3z" fill="#000000" data-fill-palette-color="accent"></path><path class="" d="M47.5 21.5c-0.9-9.6-6.8-17.6-14.9-21 3.2 4.8 5.4 12.3 5.7 21H47.5z" fill="#000000" data-fill-palette-color="accent"></path><path class="" d="M21.6 47.2V26.5h-7.2C14.9 37 18.1 44.7 21.6 47.2z" fill="#000000" data-fill-palette-color="accent"></path><path class="" d="M14.4 21.5h7.2V0.8C18.1 3.3 14.9 11 14.4 21.5z" fill="#000000" data-fill-palette-color="accent"></path><path class="" d="M15.4 47.5c-3.2-4.8-5.4-12.3-5.7-21H0.5C1.4 36.1 7.3 44.1 15.4 47.5z" fill="#000000" data-fill-palette-color="accent"></path><path class="" d="M15.4 0.5c-8.1 3.4-14 11.4-14.9 21h9.2C10.1 12.8 12.2 5.3 15.4 0.5z" fill="#000000" data-fill-palette-color="accent"></path></g></svg></g></svg></g></svg></g></svg><rect width="395.52" height="162.5839842082632" fill="none" stroke="none" visibility="hidden"></rect></g></svg></g></svg>